<svg id="l-logo-main" viewBox="0 0 112 33">
            <g fill="none" fill-rule="evenodd">
                <path fill="#0680FE" d="M14.378.16L32.84 18.622c.342.341.1.925-.383.925H13.453V.543c0-.483.584-.724.925-.383"></path>
                <path fill="#000" fill-opacity=".1" d="M19.384 13.48l6.059 6.06h-6.06z"></path>
                <path fill="#64D0FF" d="M18.622 32.713L.16 14.25a.542.542 0 0 1 .383-.924h18.462c.3 0 .542.242.542.541V32.33a.542.542 0 0 1-.925.383"></path>
                <path fill="#303235" d="M48.946 16.238c2.266 0 3.598-1.446 3.605-3.678.006-2.018-1.645-3.652-3.663-3.652h-3.123a.484.484 0 0 0-.485.484v6.362c0 .268.217.484.485.484h3.18zM41.373 6.03c0-.267.217-.484.484-.484h7.816c4.029 0 6.846 2.817 6.846 6.998 0 4.18-2.817 7.088-6.846 7.088h-3.908a.484.484 0 0 0-.485.484v6.453a.484.484 0 0 1-.484.484h-2.939a.484.484 0 0 1-.484-.484V6.03zM59.94 5.545h2.849c.267 0 .484.217.484.484v20.54a.484.484 0 0 1-.484.483H59.94a.484.484 0 0 1-.484-.484V6.03c0-.267.217-.484.484-.484M73.022 24.275c3.71 0 3.7-3.852 3.7-4.28-3.224 0-6.096-.19-6.096 2.174 0 1.03.851 2.106 2.396 2.106m3.67-6.916c.01-.319.36-2.938-2.908-2.938-1.341 0-2.706.499-3.864 1.202a.483.483 0 0 1-.682-.19l-.99-1.918a.483.483 0 0 1 .153-.62c1.342-.917 3.605-1.655 5.716-1.655 4.029 0 6.422 2.242 6.422 6.15v9.178a.484.484 0 0 1-.484.484h-2.607a.484.484 0 0 1-.484-.484v-.818c-1.732 1.302-2.756 1.666-4.846 1.666-2.787 0-5.09-1.818-5.09-4.635 0-5.855 5.598-5.422 9.664-5.422M84.96 11.604h2.728c.267 0 .484.216.484.484v1.666c.86-1.336 2.25-2.501 4.932-2.501 3.423 0 5.942 1.774 5.942 5.864v9.451a.484.484 0 0 1-.484.484h-2.879a.484.484 0 0 1-.484-.484v-8.664c0-1.878-1.022-3.12-2.96-3.12-2.233 0-3.916 2.242-3.916 5.029v6.755a.484.484 0 0 1-.484.484H84.96a.484.484 0 0 1-.484-.484v-14.48c0-.268.217-.484.484-.484M103.287 14.875h-1.03a.484.484 0 0 1-.485-.484V12.3c0-.267.217-.484.484-.484h1.122a.484.484 0 0 0 .484-.484V6.029c0-.267.217-.484.485-.484h2.788c.267 0 .484.217.484.484v5.303c0 .267.216.484.484.484h2.545c.268 0 .484.217.484.484v2.09a.484.484 0 0 1-.484.485h-2.545a.484.484 0 0 0-.484.484v5.544c0 2.545 1.999 2.908 3.06 2.908.065 0 .128 0 .193-.002a.486.486 0 0 1 .503.484v2.387a.483.483 0 0 1-.432.482 6.89 6.89 0 0 1-.75.042c-2.15 0-6.421-.636-6.421-5.816v-6.029a.484.484 0 0 0-.485-.484"></path>
            </g>
        </svg>